<svg width="41" height="41" viewBox="0 0 41 41" fill="none" xmlns="http://www.w3.org/2000/svg">
<g clip-path="url(#clip0)">
<path d="M37.5833 25.6123C37.5833 32.2748 32.2875 37.5706 25.625 37.5706H15.375C8.71249 37.5706 3.41666 32.2748 3.41666 25.6123V20.4873H37.5833V25.6123Z" fill="black"/>
<path fill-rule="evenodd" clip-rule="evenodd" d="M33.6857 21.99H27.9916C26.8934 21.99 26 21.2884 26 20.4252V13.5722C26 13.1777 26.4814 12.26 27.2717 10.7956C27.7293 9.95216 28.3516 8.79779 28.3581 8.56484C28.3581 8.44837 28.1315 8.23422 27.9786 8.09238C27.7206 7.85099 27.4539 7.6002 27.6208 7.31466C27.7813 7.03851 28.2215 7 28.6768 7H32.9951C33.5697 7.00376 33.9817 7.06199 34.1367 7.33251C34.2972 7.61899 34.0207 7.87447 33.7768 8.10084C33.6261 8.23891 33.3995 8.44743 33.3995 8.5639C33.4017 8.79873 34.0088 9.96719 34.4566 10.8191C35.2166 12.2703 35.6773 13.1805 35.6773 13.5712V20.4242C35.6773 21.2884 34.7818 21.99 33.6857 21.99ZM28.705 7.95431C28.9425 8.18162 29.1961 8.50379 29.1961 8.8363C29.1961 9.16223 28.8449 9.88172 28.1499 11.1901C27.6631 12.1022 27.0018 13.3495 27.0018 13.6323V20.2476C27.0018 20.7483 27.5168 21.155 28.1456 21.155H33.5263C34.1595 21.155 34.6734 20.7483 34.6734 20.2476V13.6323C34.6734 13.3495 34.037 12.1116 33.5697 11.2089C32.9149 9.93056 32.4736 9.16035 32.4736 8.8316C32.4736 8.49534 32.8086 8.18443 33.0493 7.95807C33.0667 7.94022 32.9669 7.8942 32.8683 7.8942H28.7961C28.7386 7.8942 28.6866 7.93552 28.705 7.95431Z" fill="black"/>
<path fill-rule="evenodd" clip-rule="evenodd" d="M33.4971 19.2736C33.4971 19.9321 32.9322 20.1068 32.2351 20.1068H29.4553C28.7582 20.1068 28.1944 19.9321 28.1944 19.2736V13.1176C28.1944 12.4591 28.8774 14.5584 30.3465 13.5628C31.8166 12.5709 33.4971 12.4591 33.4971 13.1176V19.2736Z" fill="black"/>
<path d="M14 16.9985L15.7237 22.2079C15.7677 22.341 15.8526 22.4568 15.9662 22.5389C16.0798 22.621 16.2165 22.6652 16.3567 22.6652H23.6433C23.7835 22.6652 23.9202 22.621 24.0338 22.5389C24.1474 22.4568 24.2323 22.341 24.2763 22.2079L26 16.9985" stroke="black" stroke-width="0.833333"/>
<path d="M15.8023 17.0395H14.1057C14.0918 17.0396 14.0781 17.0369 14.0653 17.0315C14.0525 17.0262 14.0409 17.0184 14.0312 17.0085C14.0215 16.9986 14.0138 16.9869 14.0087 16.974C14.0036 16.9612 14.0011 16.9474 14.0013 16.9335C14.0547 14.5925 15.878 12.6269 18.3333 11.9985H21.6667C24.0257 12.6772 25.941 14.6512 25.9987 16.9339C25.999 16.9477 25.9965 16.9615 25.9914 16.9744C25.9863 16.9872 25.9786 16.999 25.9689 17.0088C25.9592 17.0187 25.9476 17.0265 25.9347 17.0317C25.9219 17.037 25.9082 17.0397 25.8943 17.0395H24.1977C23.4256 17.0395 22.6797 17.3197 22.0987 17.8282C21.5177 18.3366 20.772 18.6169 20 18.6169C19.228 18.6169 18.4823 18.3366 17.9013 17.8282C17.3203 17.3197 16.5745 17.0395 15.8023 17.0395V17.0395Z" stroke="black" stroke-width="0.833333" stroke-linecap="round" stroke-linejoin="round"/>
<path d="M18.3667 11.9983C18.3175 11.7563 18.3228 11.5063 18.3821 11.2665C18.4414 11.0268 18.5532 10.8032 18.7095 10.6119C18.8659 10.4207 19.0627 10.2666 19.2859 10.1607C19.5091 10.0549 19.753 10 20 10C20.247 10 20.4909 10.0549 20.7141 10.1607C20.9373 10.2666 21.1341 10.4207 21.2904 10.6119C21.4468 10.8032 21.5586 11.0268 21.6179 11.2665C21.6772 11.5063 21.6825 11.7563 21.6333 11.9983" stroke="black" stroke-width="0.833333" stroke-linecap="round" stroke-linejoin="round"/>
<path fill-rule="evenodd" clip-rule="evenodd" d="M13.3354 19.4033C13.8341 19.3075 14.3393 19.2508 14.8463 19.2337C14.6653 18.3016 14.4233 17.3828 14.1221 16.4834C13.1891 16.155 12.2128 15.9647 11.2238 15.9185C9.20695 15.8409 8.89518 14.6314 11.0176 14.2098C11.7214 14.0742 12.4378 14.0196 13.153 14.0472C12.7082 13.0715 12.1978 12.1277 11.6252 11.2224C10.746 10.9326 9.83105 10.7648 8.90544 10.7236C6.89106 10.6458 6.57722 9.43544 8.70123 9.01581C9.09126 8.9386 9.48567 8.89663 9.88132 8.86878C7.78998 6.47984 5.52612 5.31216 3.88214 6.06161C1.25936 7.25511 2.95378 12.079 5.51563 17.8164C8.07438 23.5525 10.5267 28.0295 13.1519 26.8359C14.6372 26.1587 15.2942 24.0548 15.1227 21.3161C14.5955 21.2117 14.069 21.1311 13.5417 21.1119C11.5237 21.0339 11.2105 19.825 13.3354 19.4033Z" fill="black"/>
</g>
<defs>
<clipPath id="clip0">
<rect width="41" height="41" fill="white"/>
</clipPath>
</defs>
</svg>
