<svg width="65" height="65" viewBox="0 0 65 65" fill="none" xmlns="http://www.w3.org/2000/svg">
<path d="M32.5 5.4165C17.55 5.4165 5.41667 17.5498 5.41667 32.4998C5.41667 47.4498 17.55 59.5832 32.5 59.5832H46.0417V54.1665H32.5C20.7458 54.1665 10.8333 44.254 10.8333 32.4998C10.8333 20.7457 20.7458 10.8332 32.5 10.8332C44.2542 10.8332 54.1667 20.7457 54.1667 32.4998V36.3728C54.1667 38.5123 52.2438 40.6248 50.1042 40.6248C47.9646 40.6248 46.0417 38.5123 46.0417 36.3728V32.4998C46.0417 25.0248 39.975 18.9582 32.5 18.9582C25.025 18.9582 18.9583 25.0248 18.9583 32.4998C18.9583 39.9748 25.025 46.0415 32.5 46.0415C36.2375 46.0415 39.65 44.5248 42.0875 42.0603C43.8479 44.4707 46.8813 46.0415 50.1042 46.0415C55.4396 46.0415 59.5833 41.7082 59.5833 36.3728V32.4998C59.5833 17.5498 47.45 5.4165 32.5 5.4165ZM32.5 40.6248C28.0042 40.6248 24.375 36.9957 24.375 32.4998C24.375 28.004 28.0042 24.3748 32.5 24.3748C36.9958 24.3748 40.625 28.004 40.625 32.4998C40.625 36.9957 36.9958 40.6248 32.5 40.6248Z" fill="black"/>
</svg>
