<svg width="39" height="39" viewBox="0 0 39 39" fill="none" xmlns="http://www.w3.org/2000/svg">
<path d="M11.5781 4.875C10.2524 4.875 8.95639 5.26813 7.85407 6.00468C6.75175 6.74123 5.89259 7.78812 5.38525 9.01295C4.8779 10.2378 4.74516 11.5856 5.0038 12.8858C5.26244 14.1861 5.90085 15.3805 6.8383 16.318C7.77575 17.2554 8.97013 17.8938 10.2704 18.1525C11.5707 18.4111 12.9185 18.2784 14.1433 17.771C15.3681 17.2637 16.415 16.4045 17.1516 15.3022C17.8881 14.1999 18.2813 12.9039 18.2813 11.5781C18.2792 9.80097 17.5724 8.09717 16.3157 6.84053C15.0591 5.58389 13.3553 4.87702 11.5781 4.875ZM11.5781 15.8438C10.7345 15.8438 9.90975 15.5936 9.20827 15.1249C8.5068 14.6562 7.96006 13.99 7.6372 13.2105C7.31435 12.4311 7.22988 11.5734 7.39447 10.7459C7.55906 9.9185 7.96532 9.15843 8.56188 8.56188C9.15843 7.96532 9.9185 7.55906 10.7459 7.39447C11.5734 7.22988 12.4311 7.31435 13.2105 7.6372C13.99 7.96006 14.6562 8.5068 15.1249 9.20827C15.5936 9.90975 15.8438 10.7345 15.8438 11.5781C15.8425 12.7091 15.3927 13.7933 14.593 14.593C13.7933 15.3927 12.7091 15.8425 11.5781 15.8438ZM27.4219 18.2813C28.7476 18.2813 30.0436 17.8881 31.1459 17.1516C32.2483 16.415 33.1074 15.3681 33.6148 14.1433C34.1221 12.9185 34.2548 11.5707 33.9962 10.2704C33.7376 8.97013 33.0992 7.77575 32.1617 6.8383C31.2243 5.90085 30.0299 5.26244 28.7296 5.0038C27.4293 4.74516 26.0815 4.8779 24.8567 5.38525C23.6319 5.89259 22.585 6.75175 21.8484 7.85407C21.1119 8.95639 20.7188 10.2524 20.7188 11.5781C20.7208 13.3553 21.4276 15.0591 22.6843 16.3157C23.9409 17.5724 25.6447 18.2792 27.4219 18.2813ZM27.4219 7.3125C28.2655 7.3125 29.0903 7.56268 29.7917 8.03139C30.4932 8.5001 31.0399 9.1663 31.3628 9.94574C31.6857 10.7252 31.7701 11.5829 31.6055 12.4103C31.441 13.2378 31.0347 13.9978 30.4381 14.5944C29.8416 15.1909 29.0815 15.5972 28.2541 15.7618C27.4266 15.9264 26.5689 15.8419 25.7895 15.5191C25.0101 15.1962 24.3439 14.6495 23.8751 13.948C23.4064 13.2465 23.1563 12.4218 23.1563 11.5781C23.1575 10.4472 23.6073 9.36295 24.407 8.56326C25.2067 7.76357 26.2909 7.31375 27.4219 7.3125ZM11.5781 20.7188C10.2524 20.7188 8.95639 21.1119 7.85407 21.8484C6.75175 22.585 5.89259 23.6319 5.38525 24.8567C4.8779 26.0815 4.74516 27.4293 5.0038 28.7296C5.26244 30.0299 5.90085 31.2243 6.8383 32.1617C7.77575 33.0992 8.97013 33.7376 10.2704 33.9962C11.5707 34.2548 12.9185 34.1221 14.1433 33.6148C15.3681 33.1074 16.415 32.2483 17.1516 31.1459C17.8881 30.0436 18.2813 28.7476 18.2813 27.4219C18.2792 25.6447 17.5724 23.9409 16.3157 22.6843C15.0591 21.4276 13.3553 20.7208 11.5781 20.7188ZM11.5781 31.6875C10.7345 31.6875 9.90975 31.4373 9.20827 30.9686C8.5068 30.4999 7.96006 29.8337 7.6372 29.0543C7.31435 28.2748 7.22988 27.4171 7.39447 26.5897C7.55906 25.7622 7.96532 25.0022 8.56188 24.4056C9.15843 23.8091 9.9185 23.4028 10.7459 23.2382C11.5734 23.0736 12.4311 23.1581 13.2105 23.481C13.99 23.8038 14.6562 24.3505 15.1249 25.052C15.5936 25.7535 15.8438 26.5782 15.8438 27.4219C15.8425 28.5528 15.3927 29.6371 14.593 30.4368C13.7933 31.2364 12.7091 31.6863 11.5781 31.6875ZM27.4219 20.7188C26.0961 20.7188 24.8001 21.1119 23.6978 21.8484C22.5955 22.585 21.7363 23.6319 21.229 24.8567C20.7217 26.0815 20.5889 27.4293 20.8476 28.7296C21.1062 30.0299 21.7446 31.2243 22.6821 32.1617C23.6195 33.0992 24.8139 33.7376 26.1142 33.9962C27.4144 34.2548 28.7622 34.1221 29.9871 33.6148C31.2119 33.1074 32.2588 32.2483 32.9953 31.1459C33.7319 30.0436 34.125 28.7476 34.125 27.4219C34.123 25.6447 33.4161 23.9409 32.1595 22.6843C30.9028 21.4276 29.199 20.7208 27.4219 20.7188ZM27.4219 31.6875C26.5782 31.6875 25.7535 31.4373 25.052 30.9686C24.3505 30.4999 23.8038 29.8337 23.481 29.0543C23.1581 28.2748 23.0736 27.4171 23.2382 26.5897C23.4028 25.7622 23.8091 25.0022 24.4056 24.4056C25.0022 23.8091 25.7622 23.4028 26.5897 23.2382C27.4171 23.0736 28.2748 23.1581 29.0543 23.481C29.8337 23.8038 30.4999 24.3505 30.9686 25.052C31.4373 25.7535 31.6875 26.5782 31.6875 27.4219C31.6863 28.5528 31.2364 29.6371 30.4368 30.4368C29.6371 31.2364 28.5528 31.6863 27.4219 31.6875Z" fill="#F8F8F8"/>
</svg>
